<svg xmlns="http://www.w3.org/2000/svg" width="40" height="40" viewBox="0 0 40 40"><defs><style>.a{opacity:0.7;}.b{fill:rgba(0,0,0,0);}.c{fill:#5c5c5c;}</style></defs><g class="a" transform="translate(-625 -1039)"><rect class="b" width="40" height="40" transform="translate(625 1039)"/><path class="c" d="M6.494,9.9h3.637A1.024,1.024,0,0,0,11.17,8.862V6.654h12.6V8.862A1.024,1.024,0,0,0,24.808,9.9h4.546v3.117a1.117,1.117,0,0,0,1.039,1.039h2.728v3.507a1.039,1.039,0,0,0,2.078,0V10.68h1.429c.779,1.559,2.6,6.754-.13,14.287H35.069v-2.6a1.024,1.024,0,0,0-1.039-1.039H30.263a1.024,1.024,0,0,0-1.039,1.039v4.936H19.483l-3.377-4.156a.926.926,0,0,0-.779-.39H6.494Zm9.741-7.926h1.948V4.706H16.236ZM10.261-.1A.952.952,0,0,0,9.222.937a1.02,1.02,0,0,0,1.039,1.038h4.026V4.706H10.261A1.024,1.024,0,0,0,9.222,5.745V7.823H5.585A1.024,1.024,0,0,0,4.546,8.862v6.364H2.078V8.862A1.117,1.117,0,0,0,1.039,7.823,1.117,1.117,0,0,0,0,8.862V23.8a1.024,1.024,0,0,0,1.039,1.039A1.024,1.024,0,0,0,2.078,23.8V17.175H4.546V23.8a1.117,1.117,0,0,0,1.039,1.039h9.482l3.377,4.156a.926.926,0,0,0,.779.39h11.17a1.024,1.024,0,0,0,1.039-1.039V23.409h1.689v2.6a1.117,1.117,0,0,0,1.039,1.039h3.117a.977.977,0,0,0,.909-.649c4.026-10.391.13-16.885-.13-17.145a1.093,1.093,0,0,0-.909-.52H34.03a1.024,1.024,0,0,0-1.039,1.039v2.208H31.3V8.862a1.024,1.024,0,0,0-1.039-1.039H25.717V5.615a1.117,1.117,0,0,0-1.039-1.039H20v-2.6h3.9A.956.956,0,0,0,24.938.939,1.024,1.024,0,0,0,23.9-.1H10.261C9.745-.1,10.261-.1,10.261-.1Z" transform="translate(625 1044.101)"/></g></svg>