<svg xmlns="http://www.w3.org/2000/svg" width="40" height="40.75" viewBox="0 0 40 40.75"><defs><style>.a{opacity:0.7;}.b{fill:none;}.c{fill:#5c5c5c;stroke:#5c5c5c;stroke-width:0.5px;}</style></defs><g class="a" transform="translate(-1306 466.75)"><rect class="b" width="40" height="40" transform="translate(1306 -466)"/><path class="c" d="M7.407,32.2l.129-.129H23.149v6.71H7.407Zm17.032-.129a2.759,2.759,0,0,1,2.323-1.677h.258c1.29.258,1.806,2.323,1.677,3.484a3.952,3.952,0,0,1-1.29,2.194,9.165,9.165,0,0,1-2.968,2.452Zm-21.548,4A3.952,3.952,0,0,1,1.6,33.877c-.258-1.29.387-3.226,1.677-3.484a2.616,2.616,0,0,1,2.71,1.548v6.71a11.8,11.8,0,0,1-3.1-2.581M9.343,20.458H21.085V30.781H9.343ZM4.569,29.1a14.554,14.554,0,0,1,0-4.129,10.294,10.294,0,0,1,.516-2.065,5.074,5.074,0,0,0,.258-.774v-.129a25.611,25.611,0,0,0,.645-7.484,3.331,3.331,0,0,1,.9-2.71,2.062,2.062,0,0,1,1.29-.645V30.91H6.891A3.878,3.878,0,0,0,4.569,29.1M9.343,11.039H21.085v8H9.343Zm13.032,0h.387a2.1,2.1,0,0,1,1.419.645,3.834,3.834,0,0,1,.9,2.71,30.388,30.388,0,0,0,.258,8.129v.129c0,.129.129.258.129.516.129.387.129.774.258,1.161a3.572,3.572,0,0,1,.129,1.161,32.5,32.5,0,0,0,.387,3.742,4.458,4.458,0,0,0-2.452,1.677H22.633V11.039ZM12.7,8.329H17.73V9.748H12.7ZM9.988,6.91h0L11.02,1.877c0-.129.258-.258.516-.258h7.355c.258,0,.516.129.516.258l1.161,4.9V6.91c-.129.129-.258.129-.516.129H10.5c-.258,0-.387-.129-.516-.129M11.537.2A1.719,1.719,0,0,0,9.73,1.49L8.7,6.394a1.5,1.5,0,0,0,.258,1.29,2.137,2.137,0,0,0,1.548.645h.9V9.748H8.053A3.231,3.231,0,0,0,5.73,10.781a4.657,4.657,0,0,0-1.29,3.613,23.014,23.014,0,0,1-.516,7.1v.129a8.223,8.223,0,0,0-.258.9c-.258,1.161-.516,1.935-.516,2.194a16.518,16.518,0,0,0,0,4.387H3.02C.827,29.619.053,32.329.311,34.135a6.152,6.152,0,0,0,1.548,2.839,11.426,11.426,0,0,0,3.871,3.1.4.4,0,0,0,.258.129H24.44c.129,0,.129,0,.129-.129a11.426,11.426,0,0,0,3.871-3.1,4.777,4.777,0,0,0,1.548-2.839c.258-1.806-.516-4.387-2.452-4.9a31.426,31.426,0,0,1-.387-3.871c0-.387-.129-.774-.129-1.29-.129-.387-.129-.774-.258-1.29,0-.258-.129-.387-.129-.516v-.129a32.989,32.989,0,0,1-.258-7.742,4.776,4.776,0,0,0-1.29-3.742A3.667,3.667,0,0,0,22.633,9.49H19.02V8.329h.9a2.137,2.137,0,0,0,1.548-.645,1.5,1.5,0,0,0,.258-1.29l-1.161-4.9A1.719,1.719,0,0,0,18.762.2H11.537Z" transform="translate(1310.237 -466.7)"/></g></svg>